<svg width="66" height="16" viewBox="0 0 66 16" fill="none" xmlns="http://www.w3.org/2000/svg">
<path d="M3.82 15H2.22V6.88H0.42V5.4H2.22V4.24C2.22 3.6 2.31333 3.04667 2.5 2.58C2.7 2.1 2.96667 1.73333 3.3 1.48C3.63333 1.22667 3.98667 1.04667 4.36 0.94C4.74667 0.82 5.16667 0.76 5.62 0.76C6.47333 0.76 7.27333 0.906666 8.02 1.2V2.68C7.40667 2.38667 6.73333 2.24 6 2.24C5.32 2.24 4.78667 2.38667 4.4 2.68C4.01333 2.96 3.82 3.5 3.82 4.3V5.4H7.42V6.88H3.82V15ZM16.7995 13C16.7995 13.4933 17.0462 13.74 17.5395 13.74C17.7529 13.74 17.9995 13.6933 18.2795 13.6V14.9C17.8795 15.0467 17.4795 15.12 17.0795 15.12C16.1595 15.12 15.5729 14.7333 15.3195 13.96C14.2929 14.8133 13.0462 15.24 11.5795 15.24C10.6462 15.24 9.8462 14.9933 9.17953 14.5C8.5262 13.9933 8.19953 13.2667 8.19953 12.32C8.19953 11.1867 8.61953 10.3667 9.45953 9.86C10.3129 9.34 11.3395 9.08 12.5395 9.08C13.4195 9.08 14.3062 9.18 15.1995 9.38V9.04C15.1995 8.30667 14.9595 7.72667 14.4795 7.3C13.9995 6.86 13.3262 6.64 12.4595 6.64C11.2462 6.64 10.0795 6.88 8.95953 7.36V5.8C10.2129 5.37333 11.4329 5.16 12.6195 5.16C13.9262 5.16 14.9462 5.51333 15.6795 6.22C16.4262 6.91333 16.7995 7.92 16.7995 9.24V13ZM9.83953 12.24C9.83953 12.7733 10.0395 13.18 10.4395 13.46C10.8529 13.7267 11.3462 13.86 11.9195 13.86C13.2395 13.86 14.3329 13.3933 15.1995 12.46V10.7C14.2929 10.5133 13.4795 10.42 12.7595 10.42C11.9462 10.42 11.2529 10.5667 10.6795 10.86C10.1195 11.14 9.83953 11.6 9.83953 12.24ZM26.6092 5.4H28.3892L24.1492 15H22.4692L18.2292 5.4H20.0092L23.3092 13.2L26.6092 5.4ZM31.7919 15H30.1919V5.4H31.7919V15ZM31.7319 1.6C31.9319 1.77333 32.0319 2.02 32.0319 2.34C32.0319 2.66 31.9319 2.91333 31.7319 3.1C31.5319 3.27333 31.2852 3.36 30.9919 3.36C30.6985 3.36 30.4519 3.27333 30.2519 3.1C30.0519 2.91333 29.9519 2.66 29.9519 2.34C29.9519 2.02 30.0519 1.77333 30.2519 1.6C30.4519 1.41333 30.6985 1.32 30.9919 1.32C31.2852 1.32 31.5319 1.41333 31.7319 1.6ZM34.1403 10.24C34.1403 9.4 34.2936 8.64667 34.6003 7.98C34.907 7.31333 35.307 6.78 35.8003 6.38C36.307 5.98 36.8603 5.68 37.4603 5.48C38.0736 5.26667 38.7003 5.16 39.3403 5.16C40.527 5.16 41.5136 5.42 42.3003 5.94V7.5C41.567 6.92667 40.647 6.64 39.5403 6.64C38.5003 6.64 37.607 6.94 36.8603 7.54C36.1136 8.14 35.7403 9.02667 35.7403 10.2C35.7403 11.36 36.107 12.2467 36.8403 12.86C37.587 13.46 38.4736 13.76 39.5003 13.76C40.567 13.76 41.5336 13.5 42.4003 12.98V14.58C41.4936 15.02 40.4536 15.24 39.2803 15.24C37.8936 15.24 36.687 14.8067 35.6603 13.94C34.647 13.0733 34.1403 11.84 34.1403 10.24ZM45.4064 13.9C44.3931 12.9933 43.8864 11.76 43.8864 10.2C43.8864 8.64 44.3931 7.41333 45.4064 6.52C46.4197 5.61333 47.6197 5.16 49.0064 5.16C50.4064 5.16 51.6064 5.61333 52.6064 6.52C53.6197 7.41333 54.1264 8.64 54.1264 10.2C54.1264 11.76 53.6197 12.9933 52.6064 13.9C51.6064 14.7933 50.4064 15.24 49.0064 15.24C47.6197 15.24 46.4197 14.7933 45.4064 13.9ZM51.5264 12.78C52.1931 12.14 52.5264 11.28 52.5264 10.2C52.5264 9.12 52.1931 8.26667 51.5264 7.64C50.8597 7 50.0197 6.68 49.0064 6.68C47.9931 6.68 47.1531 7 46.4864 7.64C45.8197 8.26667 45.4864 9.12 45.4864 10.2C45.4864 11.28 45.8197 12.14 46.4864 12.78C47.1531 13.4067 47.9931 13.72 49.0064 13.72C50.0197 13.72 50.8597 13.4067 51.5264 12.78ZM57.8614 6.82C58.2081 6.35333 58.6881 5.96 59.3014 5.64C59.9281 5.32 60.6014 5.16 61.3214 5.16C62.4814 5.16 63.4347 5.52667 64.1814 6.26C64.9414 6.98 65.3214 7.92 65.3214 9.08V15H63.7214V9.28C63.7214 8.41333 63.4814 7.76 63.0014 7.32C62.5347 6.86667 61.9147 6.64 61.1414 6.64C59.9147 6.64 58.8747 7.28 58.0214 8.56V15H56.4214V5.4H57.8614V6.82Z" fill="#D9D9E1"/>
</svg>
